<svg xmlns="http://www.w3.org/2000/svg" viewBox="0 0 100 125"><path d="M50 30.25c18.19 0 31.382 15.224 35.294 20.33C81.38 55.69 68.19 70.914 50 70.914c-18.19 0-31.38-15.225-35.294-20.332C18.62 45.47 31.81 30.25 50 30.25m0-3c-23.69 0-39 23.33-39 23.33s15.31 23.333 39 23.333c23.692 0 39-23.332 39-23.332S73.693 27.25 50 27.25zm.75-19.164h-1.5v12.92h1.5V8.086zm-25.32 19.22l-7.79-10.138-1.19.914 7.79 10.137 1.19-.918zm58.12-9.223l-1.188-.914-7.79 10.133 1.19.914 7.79-10.138zm-24.692 30a6.36 6.36 0 0 1-6.357-6.36c0-1.393.457-2.677 1.217-3.724a13.05 13.05 0 0 0-3.688-.54c-7.23 0-13.09 5.86-13.09 13.092s5.86 13.092 13.09 13.092 13.093-5.86 13.093-13.092c0-1.28-.19-2.517-.535-3.687a6.314 6.314 0 0 1-3.726 1.215z"/></svg>