<svg xmlns="http://www.w3.org/2000/svg" viewBox="0 0 100 125"><path d="M89.54 29.38H10.85C5.862 29.975 2 34.222 2 39.364V81h63.187l18.285-18.284V49.344h6.07c5.503 0 9.985-4.476 9.985-9.98 0-5.51-4.482-9.985-9.986-9.985zM66.138 74.49V63.86h10.63l-10.63 10.63zm13.417-35.14l-.008.015v20.57H62.21v17.14H5.926v-29.74c.017.015.04.022.056.04v-8.01a6.078 6.078 0 0 1 5.67-6.06c.133-.008 69.96 0 69.96 0a9.916 9.916 0 0 0-2.056 6.045zm9.987 6.068c-3.345 0-6.06-2.716-6.06-6.053a6.065 6.065 0 0 1 6.06-6.06c3.337 0 6.063 2.716 6.063 6.06 0 3.337-2.726 6.053-6.062 6.053z"/><circle cx="89.466" cy="39.365" r="2.257"/></svg>